<svg width="657" height="302" viewBox="0 0 657 302" fill="none" xmlns="http://www.w3.org/2000/svg">
<rect width="657" height="302" fill="white" fill-opacity="0.54"/>
<path d="M119.479 136.348C119.376 135.317 118.938 134.516 118.162 133.945C117.386 133.374 116.334 133.088 115.004 133.088C114.101 133.088 113.338 133.216 112.716 133.472C112.094 133.719 111.616 134.064 111.284 134.507C110.96 134.95 110.798 135.453 110.798 136.016C110.781 136.484 110.879 136.893 111.092 137.243C111.314 137.592 111.616 137.895 112 138.151C112.384 138.398 112.827 138.615 113.33 138.803C113.832 138.982 114.369 139.135 114.94 139.263L117.293 139.825C118.435 140.081 119.483 140.422 120.438 140.848C121.392 141.274 122.219 141.798 122.918 142.42C123.616 143.043 124.158 143.776 124.541 144.619C124.933 145.463 125.134 146.43 125.142 147.521C125.134 149.124 124.724 150.513 123.915 151.689C123.114 152.857 121.955 153.764 120.438 154.412C118.929 155.051 117.109 155.371 114.979 155.371C112.865 155.371 111.024 155.047 109.456 154.399C107.896 153.751 106.678 152.793 105.8 151.523C104.93 150.244 104.474 148.663 104.432 146.78H109.788C109.848 147.658 110.099 148.391 110.543 148.979C110.994 149.558 111.595 149.997 112.345 150.295C113.104 150.585 113.96 150.73 114.915 150.73C115.852 150.73 116.666 150.594 117.357 150.321C118.055 150.048 118.597 149.669 118.98 149.183C119.364 148.697 119.555 148.139 119.555 147.509C119.555 146.92 119.381 146.426 119.031 146.026C118.69 145.625 118.188 145.284 117.523 145.003C116.866 144.722 116.061 144.466 115.107 144.236L112.256 143.52C110.048 142.983 108.305 142.143 107.027 141.001C105.749 139.859 105.114 138.321 105.122 136.386C105.114 134.801 105.536 133.416 106.388 132.232C107.249 131.047 108.429 130.122 109.929 129.457C111.429 128.793 113.134 128.46 115.043 128.46C116.986 128.46 118.682 128.793 120.131 129.457C121.588 130.122 122.722 131.047 123.531 132.232C124.341 133.416 124.759 134.788 124.784 136.348H119.479ZM128.763 155V135.364H134.209V155H128.763ZM131.499 132.832C130.689 132.832 129.995 132.564 129.415 132.027C128.844 131.482 128.559 130.83 128.559 130.071C128.559 129.321 128.844 128.678 129.415 128.141C129.995 127.595 130.689 127.322 131.499 127.322C132.309 127.322 132.999 127.595 133.57 128.141C134.15 128.678 134.439 129.321 134.439 130.071C134.439 130.83 134.15 131.482 133.57 132.027C132.999 132.564 132.309 132.832 131.499 132.832ZM145.808 155.32C144.316 155.32 142.965 154.936 141.755 154.169C140.553 153.393 139.599 152.256 138.891 150.756C138.192 149.247 137.843 147.398 137.843 145.207C137.843 142.957 138.205 141.087 138.93 139.595C139.654 138.095 140.617 136.974 141.819 136.233C143.029 135.483 144.354 135.108 145.795 135.108C146.894 135.108 147.81 135.295 148.543 135.67C149.285 136.037 149.881 136.497 150.333 137.051C150.793 137.597 151.143 138.134 151.381 138.662H151.548V128.818H156.981V155H151.612V151.855H151.381C151.126 152.401 150.763 152.942 150.295 153.479C149.835 154.007 149.234 154.446 148.492 154.795C147.759 155.145 146.864 155.32 145.808 155.32ZM147.533 150.986C148.411 150.986 149.153 150.747 149.758 150.27C150.371 149.784 150.84 149.107 151.164 148.237C151.496 147.368 151.663 146.349 151.663 145.182C151.663 144.014 151.501 143 151.177 142.139C150.853 141.278 150.384 140.614 149.771 140.145C149.157 139.676 148.411 139.442 147.533 139.442C146.638 139.442 145.884 139.685 145.271 140.17C144.657 140.656 144.192 141.33 143.877 142.19C143.562 143.051 143.404 144.048 143.404 145.182C143.404 146.324 143.562 147.334 143.877 148.212C144.201 149.081 144.665 149.763 145.271 150.257C145.884 150.743 146.638 150.986 147.533 150.986ZM166.904 143.648V155H161.458V128.818H166.751V138.828H166.981C167.424 137.669 168.14 136.761 169.129 136.105C170.118 135.44 171.358 135.108 172.849 135.108C174.213 135.108 175.402 135.406 176.416 136.003C177.439 136.591 178.231 137.439 178.794 138.547C179.365 139.646 179.646 140.963 179.637 142.497V155H174.191V143.469C174.2 142.259 173.893 141.317 173.271 140.643C172.657 139.97 171.797 139.634 170.689 139.634C169.947 139.634 169.291 139.791 168.72 140.107C168.157 140.422 167.714 140.882 167.39 141.487C167.075 142.084 166.913 142.804 166.904 143.648ZM189.523 155.371C188.27 155.371 187.153 155.153 186.173 154.719C185.193 154.276 184.418 153.624 183.847 152.763C183.284 151.893 183.003 150.811 183.003 149.516C183.003 148.425 183.203 147.509 183.604 146.767C184.004 146.026 184.55 145.429 185.24 144.977C185.93 144.526 186.714 144.185 187.592 143.955C188.479 143.724 189.408 143.562 190.379 143.469C191.521 143.349 192.442 143.239 193.141 143.136C193.839 143.026 194.347 142.864 194.662 142.651C194.977 142.437 195.135 142.122 195.135 141.705V141.628C195.135 140.818 194.879 140.192 194.368 139.749C193.865 139.305 193.149 139.084 192.22 139.084C191.24 139.084 190.46 139.301 189.881 139.736C189.301 140.162 188.918 140.699 188.73 141.347L183.693 140.938C183.949 139.744 184.452 138.713 185.202 137.844C185.952 136.966 186.919 136.293 188.104 135.824C189.297 135.347 190.678 135.108 192.246 135.108C193.337 135.108 194.381 135.236 195.378 135.491C196.384 135.747 197.274 136.143 198.05 136.68C198.834 137.217 199.452 137.908 199.903 138.751C200.355 139.587 200.581 140.588 200.581 141.756V155H195.416V152.277H195.263C194.947 152.891 194.526 153.432 193.997 153.901C193.469 154.361 192.834 154.723 192.092 154.987C191.351 155.243 190.494 155.371 189.523 155.371ZM191.082 151.612C191.884 151.612 192.591 151.455 193.205 151.139C193.818 150.815 194.3 150.381 194.649 149.835C194.999 149.29 195.173 148.672 195.173 147.982V145.898C195.003 146.009 194.768 146.111 194.47 146.205C194.18 146.29 193.852 146.371 193.486 146.447C193.119 146.516 192.753 146.58 192.386 146.639C192.02 146.69 191.688 146.737 191.389 146.78C190.75 146.874 190.192 147.023 189.714 147.227C189.237 147.432 188.866 147.709 188.602 148.058C188.338 148.399 188.206 148.825 188.206 149.337C188.206 150.078 188.474 150.645 189.011 151.037C189.557 151.42 190.247 151.612 191.082 151.612ZM204.806 155V135.364H210.086V138.79H210.29C210.648 137.571 211.249 136.651 212.093 136.028C212.937 135.398 213.908 135.082 215.008 135.082C215.281 135.082 215.575 135.099 215.89 135.134C216.205 135.168 216.482 135.214 216.721 135.274V140.107C216.465 140.03 216.112 139.962 215.66 139.902C215.208 139.842 214.795 139.812 214.42 139.812C213.619 139.812 212.903 139.987 212.272 140.337C211.65 140.678 211.156 141.155 210.789 141.768C210.431 142.382 210.252 143.089 210.252 143.891V155H204.806ZM230.966 135.364V139.455H219.14V135.364H230.966ZM221.825 130.659H227.271V148.966C227.271 149.469 227.348 149.861 227.501 150.142C227.654 150.415 227.868 150.607 228.14 150.717C228.422 150.828 228.745 150.884 229.112 150.884C229.368 150.884 229.623 150.862 229.879 150.82C230.135 150.768 230.331 150.73 230.467 150.705L231.324 154.757C231.051 154.842 230.667 154.94 230.173 155.051C229.679 155.17 229.078 155.243 228.37 155.268C227.058 155.32 225.907 155.145 224.919 154.744C223.939 154.344 223.176 153.722 222.63 152.878C222.085 152.034 221.816 150.969 221.825 149.682V130.659ZM240.381 143.648V155H234.935V128.818H240.228V138.828H240.458C240.901 137.669 241.617 136.761 242.605 136.105C243.594 135.44 244.834 135.108 246.326 135.108C247.689 135.108 248.878 135.406 249.892 136.003C250.915 136.591 251.708 137.439 252.27 138.547C252.841 139.646 253.123 140.963 253.114 142.497V155H247.668V143.469C247.676 142.259 247.37 141.317 246.748 140.643C246.134 139.97 245.273 139.634 244.165 139.634C243.424 139.634 242.767 139.791 242.196 140.107C241.634 140.422 241.191 140.882 240.867 141.487C240.551 142.084 240.39 142.804 240.381 143.648Z" fill="#F5F5F5"/>
<path d="M264.045 128.818L273.045 153.977H273.148L282.148 128.818H283.017L273.659 155H272.534L263.176 128.818H264.045ZM288.479 141.807V155H287.661V128.818H288.479V138.483H288.581C289.042 137.46 289.796 136.642 290.844 136.028C291.901 135.415 293.107 135.108 294.462 135.108C295.775 135.108 296.934 135.393 297.939 135.964C298.945 136.536 299.733 137.324 300.304 138.33C300.875 139.335 301.161 140.494 301.161 141.807V155H300.343V141.807C300.343 140.068 299.797 138.653 298.706 137.562C297.615 136.472 296.201 135.926 294.462 135.926C293.303 135.926 292.272 136.178 291.368 136.68C290.473 137.183 289.766 137.878 289.246 138.764C288.735 139.651 288.479 140.665 288.479 141.807ZM313.031 155.409C311.957 155.409 310.964 155.188 310.052 154.744C309.149 154.301 308.42 153.653 307.866 152.801C307.321 151.949 307.048 150.909 307.048 149.682C307.048 149.017 307.154 148.395 307.368 147.815C307.581 147.227 307.956 146.695 308.493 146.217C309.029 145.74 309.779 145.331 310.743 144.99C311.714 144.649 312.954 144.389 314.463 144.21C315.366 144.108 316.218 143.989 317.02 143.852C317.821 143.716 318.473 143.511 318.975 143.239C319.478 142.966 319.73 142.574 319.73 142.062V140.886C319.73 139.378 319.223 138.168 318.208 137.256C317.194 136.335 315.843 135.875 314.156 135.875C312.775 135.875 311.569 136.182 310.538 136.795C309.507 137.401 308.787 138.253 308.377 139.352L307.61 139.045C307.917 138.227 308.39 137.52 309.029 136.923C309.669 136.327 310.427 135.866 311.305 135.543C312.183 135.219 313.133 135.057 314.156 135.057C315.153 135.057 316.044 135.206 316.828 135.504C317.62 135.794 318.294 136.203 318.848 136.732C319.402 137.251 319.824 137.865 320.113 138.572C320.403 139.28 320.548 140.051 320.548 140.886V155H319.73V151.011H319.627C319.218 151.898 318.686 152.673 318.029 153.338C317.382 153.994 316.632 154.506 315.779 154.872C314.936 155.23 314.02 155.409 313.031 155.409ZM313.031 154.591C314.275 154.591 315.404 154.259 316.419 153.594C317.433 152.92 318.238 151.987 318.835 150.794C319.431 149.592 319.73 148.199 319.73 146.614V143.648C319.491 143.827 319.201 143.984 318.86 144.121C318.528 144.257 318.149 144.381 317.723 144.491C317.305 144.594 316.849 144.683 316.355 144.76C315.86 144.837 315.332 144.909 314.77 144.977C313.014 145.182 311.633 145.493 310.627 145.911C309.622 146.328 308.91 146.852 308.493 147.483C308.075 148.114 307.866 148.847 307.866 149.682C307.866 151.165 308.36 152.354 309.349 153.249C310.346 154.143 311.574 154.591 313.031 154.591ZM328.417 141.807V155H327.598V135.364H328.417V138.483H328.519C328.979 137.46 329.733 136.642 330.782 136.028C331.838 135.415 333.044 135.108 334.4 135.108C335.712 135.108 336.871 135.393 337.877 135.964C338.882 136.536 339.671 137.324 340.242 138.33C340.813 139.335 341.098 140.494 341.098 141.807V155H340.28V141.807C340.28 140.068 339.735 138.653 338.644 137.562C337.553 136.472 336.138 135.926 334.4 135.926C333.24 135.926 332.209 136.178 331.306 136.68C330.411 137.183 329.703 137.878 329.184 138.764C328.672 139.651 328.417 140.665 328.417 141.807ZM348.059 155V135.364H348.877V138.278H348.98C349.338 137.324 349.977 136.557 350.897 135.977C351.826 135.398 352.943 135.108 354.247 135.108C355.73 135.108 356.91 135.474 357.788 136.207C358.674 136.94 359.284 137.92 359.616 139.148H359.718C360.042 137.92 360.699 136.94 361.687 136.207C362.676 135.474 363.912 135.108 365.395 135.108C367.363 135.108 368.816 135.734 369.754 136.987C370.7 138.232 371.173 139.838 371.173 141.807V155H370.355V141.807C370.355 140.068 369.963 138.653 369.179 137.562C368.395 136.472 367.133 135.926 365.395 135.926C363.656 135.926 362.326 136.48 361.406 137.588C360.485 138.687 360.025 140.094 360.025 141.807V155H359.207V141.807C359.207 140.068 358.815 138.653 358.031 137.562C357.247 136.472 355.985 135.926 354.247 135.926C353.088 135.926 352.108 136.178 351.306 136.68C350.514 137.183 349.909 137.878 349.491 138.764C349.082 139.651 348.877 140.665 348.877 141.807V155H348.059ZM383.027 155.409C381.953 155.409 380.96 155.188 380.048 154.744C379.145 154.301 378.416 153.653 377.862 152.801C377.317 151.949 377.044 150.909 377.044 149.682C377.044 149.017 377.151 148.395 377.364 147.815C377.577 147.227 377.952 146.695 378.489 146.217C379.026 145.74 379.776 145.331 380.739 144.99C381.71 144.649 382.95 144.389 384.459 144.21C385.362 144.108 386.214 143.989 387.016 143.852C387.817 143.716 388.469 143.511 388.972 143.239C389.474 142.966 389.726 142.574 389.726 142.062V140.886C389.726 139.378 389.219 138.168 388.205 137.256C387.19 136.335 385.839 135.875 384.152 135.875C382.771 135.875 381.565 136.182 380.534 136.795C379.503 137.401 378.783 138.253 378.374 139.352L377.607 139.045C377.913 138.227 378.386 137.52 379.026 136.923C379.665 136.327 380.423 135.866 381.301 135.543C382.179 135.219 383.129 135.057 384.152 135.057C385.149 135.057 386.04 135.206 386.824 135.504C387.616 135.794 388.29 136.203 388.844 136.732C389.398 137.251 389.82 137.865 390.109 138.572C390.399 139.28 390.544 140.051 390.544 140.886V155H389.726V151.011H389.624C389.214 151.898 388.682 152.673 388.026 153.338C387.378 153.994 386.628 154.506 385.776 154.872C384.932 155.23 384.016 155.409 383.027 155.409ZM383.027 154.591C384.271 154.591 385.401 154.259 386.415 153.594C387.429 152.92 388.234 151.987 388.831 150.794C389.428 149.592 389.726 148.199 389.726 146.614V143.648C389.487 143.827 389.197 143.984 388.857 144.121C388.524 144.257 388.145 144.381 387.719 144.491C387.301 144.594 386.845 144.683 386.351 144.76C385.857 144.837 385.328 144.909 384.766 144.977C383.01 145.182 381.629 145.493 380.624 145.911C379.618 146.328 378.906 146.852 378.489 147.483C378.071 148.114 377.862 148.847 377.862 149.682C377.862 151.165 378.357 152.354 379.345 153.249C380.342 154.143 381.57 154.591 383.027 154.591ZM397.594 155V135.364H398.413V138.483H398.515C398.975 137.46 399.729 136.642 400.778 136.028C401.835 135.415 403.04 135.108 404.396 135.108C404.498 135.108 404.566 135.108 404.6 135.108C404.634 135.108 404.702 135.108 404.805 135.108V135.926C404.702 135.926 404.634 135.926 404.6 135.926C404.566 135.926 404.498 135.926 404.396 135.926C403.237 135.926 402.205 136.178 401.302 136.68C400.407 137.183 399.7 137.878 399.18 138.764C398.668 139.651 398.413 140.665 398.413 141.807V155H397.594ZM414.211 155.409C413.137 155.409 412.144 155.188 411.232 154.744C410.328 154.301 409.6 153.653 409.046 152.801C408.5 151.949 408.228 150.909 408.228 149.682C408.228 149.017 408.334 148.395 408.547 147.815C408.76 147.227 409.135 146.695 409.672 146.217C410.209 145.74 410.959 145.331 411.922 144.99C412.894 144.649 414.134 144.389 415.642 144.21C416.546 144.108 417.398 143.989 418.199 143.852C419 143.716 419.652 143.511 420.155 143.239C420.658 142.966 420.909 142.574 420.909 142.062V140.886C420.909 139.378 420.402 138.168 419.388 137.256C418.374 136.335 417.023 135.875 415.336 135.875C413.955 135.875 412.749 136.182 411.718 136.795C410.686 137.401 409.966 138.253 409.557 139.352L408.79 139.045C409.097 138.227 409.57 137.52 410.209 136.923C410.848 136.327 411.607 135.866 412.485 135.543C413.363 135.219 414.313 135.057 415.336 135.057C416.333 135.057 417.223 135.206 418.007 135.504C418.8 135.794 419.473 136.203 420.027 136.732C420.581 137.251 421.003 137.865 421.293 138.572C421.583 139.28 421.728 140.051 421.728 140.886V155H420.909V151.011H420.807C420.398 151.898 419.865 152.673 419.209 153.338C418.561 153.994 417.811 154.506 416.959 154.872C416.115 155.23 415.199 155.409 414.211 155.409ZM414.211 154.591C415.455 154.591 416.584 154.259 417.598 153.594C418.613 152.92 419.418 151.987 420.015 150.794C420.611 149.592 420.909 148.199 420.909 146.614V143.648C420.671 143.827 420.381 143.984 420.04 144.121C419.708 144.257 419.328 144.381 418.902 144.491C418.485 144.594 418.029 144.683 417.534 144.76C417.04 144.837 416.512 144.909 415.949 144.977C414.194 145.182 412.813 145.493 411.807 145.911C410.801 146.328 410.09 146.852 409.672 147.483C409.255 148.114 409.046 148.847 409.046 149.682C409.046 151.165 409.54 152.354 410.529 153.249C411.526 154.143 412.753 154.591 414.211 154.591ZM434.914 135.364V136.182H427.142V135.364H434.914ZM430.005 130.659H430.824V150.858C430.824 151.625 430.994 152.286 431.335 152.839C431.676 153.385 432.127 153.807 432.69 154.105C433.252 154.395 433.858 154.54 434.505 154.54C434.752 154.54 434.978 154.518 435.183 154.476C435.396 154.433 435.613 154.369 435.835 154.284L436.091 155.051C435.835 155.145 435.583 155.217 435.336 155.268C435.089 155.328 434.812 155.358 434.505 155.358C433.704 155.358 432.958 155.175 432.268 154.808C431.586 154.442 431.037 153.922 430.619 153.249C430.21 152.575 430.005 151.778 430.005 150.858V130.659ZM442.534 141.807V155H441.716V128.818H442.534V138.483H442.636C443.096 137.46 443.85 136.642 444.899 136.028C445.956 135.415 447.162 135.108 448.517 135.108C449.829 135.108 450.988 135.393 451.994 135.964C453 136.536 453.788 137.324 454.359 138.33C454.93 139.335 455.216 140.494 455.216 141.807V155H454.397V141.807C454.397 140.068 453.852 138.653 452.761 137.562C451.67 136.472 450.255 135.926 448.517 135.926C447.358 135.926 446.326 136.178 445.423 136.68C444.528 137.183 443.821 137.878 443.301 138.764C442.789 139.651 442.534 140.665 442.534 141.807ZM469.54 155.409C467.827 155.409 466.327 154.962 465.04 154.067C463.762 153.172 462.769 151.957 462.061 150.423C461.354 148.889 461 147.159 461 145.233C461 143.307 461.354 141.577 462.061 140.043C462.777 138.509 463.749 137.294 464.976 136.399C466.203 135.504 467.588 135.057 469.131 135.057C470.273 135.057 471.33 135.3 472.301 135.786C473.282 136.271 474.134 136.945 474.858 137.805C475.583 138.666 476.145 139.659 476.546 140.784C476.955 141.901 477.159 143.094 477.159 144.364V145.182H461.409V144.364H476.341C476.341 142.787 476.017 141.359 475.37 140.081C474.722 138.794 473.853 137.771 472.762 137.013C471.671 136.254 470.461 135.875 469.131 135.875C467.784 135.875 466.566 136.276 465.475 137.077C464.384 137.878 463.51 138.969 462.854 140.349C462.198 141.73 461.853 143.29 461.819 145.028V145.131C461.819 146.844 462.117 148.42 462.713 149.861C463.319 151.293 464.196 152.439 465.347 153.3C466.498 154.161 467.895 154.591 469.54 154.591C470.75 154.591 471.765 154.378 472.583 153.952C473.409 153.526 474.07 153.036 474.564 152.482C475.067 151.928 475.438 151.455 475.676 151.062L476.341 151.523C476.051 152.017 475.617 152.567 475.037 153.172C474.458 153.777 473.716 154.301 472.813 154.744C471.909 155.188 470.819 155.409 469.54 155.409Z" fill="#F5F5F5"/>
<rect x="495" y="142" width="10" height="13" fill="#D91919"/>
</svg>
